<mxfile host="app.diagrams.net" modified="2021-06-01T07:52:39.332Z" agent="5.0 (Macintosh; Intel Mac OS X 10_14_5) AppleWebKit/537.36 (KHTML, like Gecko) Chrome/91.0.4472.77 Safari/537.36" etag="cpFLWygQI73hRMRCTIdh" version="14.7.1" type="github">
  <diagram id="moyvBZoqEqQ-8UYQ3a70" name="Page-1">
    <mxGraphModel dx="1186" dy="740" grid="1" gridSize="10" guides="1" tooltips="1" connect="1" arrows="1" fold="1" page="1" pageScale="1" pageWidth="827" pageHeight="1169" math="0" shadow="0">
      <root>
        <mxCell id="0" />
        <mxCell id="1" parent="0" />
        <mxCell id="YB-uOoayBmhUFbvPWa7u-1" value="管理员入口" style="rounded=0;whiteSpace=wrap;html=1;" parent="1" vertex="1">
          <mxGeometry x="240" y="880" width="120" height="40" as="geometry" />
        </mxCell>
        <mxCell id="YB-uOoayBmhUFbvPWa7u-2" value="租户入口" style="rounded=0;whiteSpace=wrap;html=1;" parent="1" vertex="1">
          <mxGeometry x="240" y="600" width="120" height="40" as="geometry" />
        </mxCell>
        <mxCell id="YB-uOoayBmhUFbvPWa7u-16" style="edgeStyle=orthogonalEdgeStyle;rounded=0;orthogonalLoop=1;jettySize=auto;html=1;exitX=1;exitY=0.5;exitDx=0;exitDy=0;entryX=0;entryY=0.5;entryDx=0;entryDy=0;" parent="1" source="YB-uOoayBmhUFbvPWa7u-3" target="YB-uOoayBmhUFbvPWa7u-15" edge="1">
          <mxGeometry relative="1" as="geometry" />
        </mxCell>
        <mxCell id="YB-uOoayBmhUFbvPWa7u-3" value="管理端后台入口" style="rounded=0;whiteSpace=wrap;html=1;" parent="1" vertex="1">
          <mxGeometry x="240" y="1040" width="120" height="40" as="geometry" />
        </mxCell>
        <mxCell id="YB-uOoayBmhUFbvPWa7u-4" value="微信公众号" style="rounded=0;whiteSpace=wrap;html=1;" parent="1" vertex="1">
          <mxGeometry x="400" y="480" width="120" height="40" as="geometry" />
        </mxCell>
        <mxCell id="YB-uOoayBmhUFbvPWa7u-5" value="微信小程序" style="rounded=0;whiteSpace=wrap;html=1;" parent="1" vertex="1">
          <mxGeometry x="400" y="560" width="120" height="40" as="geometry" />
        </mxCell>
        <mxCell id="YB-uOoayBmhUFbvPWa7u-6" value="支付宝小程序" style="rounded=0;whiteSpace=wrap;html=1;" parent="1" vertex="1">
          <mxGeometry x="400" y="640" width="120" height="40" as="geometry" />
        </mxCell>
        <mxCell id="YB-uOoayBmhUFbvPWa7u-9" value="" style="shape=curlyBracket;whiteSpace=wrap;html=1;rounded=1;" parent="1" vertex="1">
          <mxGeometry x="360" y="500" width="40" height="240" as="geometry" />
        </mxCell>
        <mxCell id="YB-uOoayBmhUFbvPWa7u-10" value="H5移动、PC站" style="rounded=0;whiteSpace=wrap;html=1;" parent="1" vertex="1">
          <mxGeometry x="400" y="720" width="120" height="40" as="geometry" />
        </mxCell>
        <mxCell id="YB-uOoayBmhUFbvPWa7u-11" value="H5移动、PC站" style="rounded=0;whiteSpace=wrap;html=1;" parent="1" vertex="1">
          <mxGeometry x="400" y="960" width="120" height="40" as="geometry" />
        </mxCell>
        <mxCell id="YB-uOoayBmhUFbvPWa7u-12" value="微信公众号" style="rounded=0;whiteSpace=wrap;html=1;" parent="1" vertex="1">
          <mxGeometry x="400" y="800" width="120" height="40" as="geometry" />
        </mxCell>
        <mxCell id="YB-uOoayBmhUFbvPWa7u-13" value="微信小程序" style="rounded=0;whiteSpace=wrap;html=1;" parent="1" vertex="1">
          <mxGeometry x="400" y="880" width="120" height="40" as="geometry" />
        </mxCell>
        <mxCell id="YB-uOoayBmhUFbvPWa7u-14" value="" style="shape=curlyBracket;whiteSpace=wrap;html=1;rounded=1;" parent="1" vertex="1">
          <mxGeometry x="360" y="810" width="40" height="180" as="geometry" />
        </mxCell>
        <mxCell id="YB-uOoayBmhUFbvPWa7u-15" value="H5移动、PC站" style="rounded=0;whiteSpace=wrap;html=1;" parent="1" vertex="1">
          <mxGeometry x="400" y="1040" width="120" height="40" as="geometry" />
        </mxCell>
        <mxCell id="7Hp0aEXJhVOCBosLb66T-6" value="公众号（用户）" style="rounded=0;whiteSpace=wrap;html=1;" vertex="1" parent="1">
          <mxGeometry x="1240.5" y="200" width="120" height="40" as="geometry" />
        </mxCell>
        <mxCell id="7Hp0aEXJhVOCBosLb66T-7" value="公众号（维修工）" style="rounded=0;whiteSpace=wrap;html=1;" vertex="1" parent="1">
          <mxGeometry x="1440" y="200" width="120" height="40" as="geometry" />
        </mxCell>
        <mxCell id="7Hp0aEXJhVOCBosLb66T-8" value="管理系统" style="rounded=0;whiteSpace=wrap;html=1;" vertex="1" parent="1">
          <mxGeometry x="1640" y="200" width="120" height="40" as="geometry" />
        </mxCell>
        <mxCell id="7Hp0aEXJhVOCBosLb66T-9" value="" style="endArrow=none;dashed=1;html=1;entryX=0.5;entryY=1;entryDx=0;entryDy=0;strokeWidth=2;" edge="1" parent="1" target="7Hp0aEXJhVOCBosLb66T-6">
          <mxGeometry width="50" height="50" relative="1" as="geometry">
            <mxPoint x="1301" y="800" as="sourcePoint" />
            <mxPoint x="1325.5" y="290" as="targetPoint" />
          </mxGeometry>
        </mxCell>
        <mxCell id="7Hp0aEXJhVOCBosLb66T-13" value="" style="endArrow=none;dashed=1;html=1;entryX=0.5;entryY=1;entryDx=0;entryDy=0;strokeWidth=2;startArrow=none;" edge="1" parent="1" source="7Hp0aEXJhVOCBosLb66T-21">
          <mxGeometry width="50" height="50" relative="1" as="geometry">
            <mxPoint x="1500" y="740" as="sourcePoint" />
            <mxPoint x="1499.5" y="240" as="targetPoint" />
          </mxGeometry>
        </mxCell>
        <mxCell id="7Hp0aEXJhVOCBosLb66T-14" value="" style="endArrow=none;dashed=1;html=1;entryX=0.5;entryY=1;entryDx=0;entryDy=0;strokeWidth=2;" edge="1" parent="1">
          <mxGeometry width="50" height="50" relative="1" as="geometry">
            <mxPoint x="1700" y="800" as="sourcePoint" />
            <mxPoint x="1699.5" y="240" as="targetPoint" />
          </mxGeometry>
        </mxCell>
        <mxCell id="7Hp0aEXJhVOCBosLb66T-16" value="租户" style="rounded=0;whiteSpace=wrap;html=1;" vertex="1" parent="1">
          <mxGeometry x="1040" y="200" width="120" height="40" as="geometry" />
        </mxCell>
        <mxCell id="7Hp0aEXJhVOCBosLb66T-17" value="" style="endArrow=none;dashed=1;html=1;entryX=0.5;entryY=1;entryDx=0;entryDy=0;strokeWidth=2;" edge="1" parent="1">
          <mxGeometry width="50" height="50" relative="1" as="geometry">
            <mxPoint x="1100" y="800" as="sourcePoint" />
            <mxPoint x="1099.5" y="240" as="targetPoint" />
          </mxGeometry>
        </mxCell>
        <mxCell id="7Hp0aEXJhVOCBosLb66T-18" value="" style="endArrow=classic;html=1;strokeWidth=2;" edge="1" parent="1">
          <mxGeometry width="50" height="50" relative="1" as="geometry">
            <mxPoint x="1100" y="280" as="sourcePoint" />
            <mxPoint x="1300" y="280" as="targetPoint" />
          </mxGeometry>
        </mxCell>
        <mxCell id="7Hp0aEXJhVOCBosLb66T-19" value="提交报修" style="text;html=1;strokeColor=none;fillColor=none;align=center;verticalAlign=middle;whiteSpace=wrap;rounded=0;" vertex="1" parent="1">
          <mxGeometry x="1150" y="260" width="80" height="20" as="geometry" />
        </mxCell>
        <mxCell id="7Hp0aEXJhVOCBosLb66T-20" value="" style="endArrow=classic;html=1;strokeWidth=2;" edge="1" parent="1">
          <mxGeometry width="50" height="50" relative="1" as="geometry">
            <mxPoint x="1300" y="320" as="sourcePoint" />
            <mxPoint x="1700" y="320" as="targetPoint" />
          </mxGeometry>
        </mxCell>
        <mxCell id="7Hp0aEXJhVOCBosLb66T-24" value="" style="endArrow=classic;html=1;strokeWidth=2;" edge="1" parent="1">
          <mxGeometry width="50" height="50" relative="1" as="geometry">
            <mxPoint x="1700" y="360" as="sourcePoint" />
            <mxPoint x="1500" y="360" as="targetPoint" />
          </mxGeometry>
        </mxCell>
        <mxCell id="7Hp0aEXJhVOCBosLb66T-25" value="模版消息通知" style="text;html=1;strokeColor=none;fillColor=none;align=center;verticalAlign=middle;whiteSpace=wrap;rounded=0;" vertex="1" parent="1">
          <mxGeometry x="1560" y="340" width="80" height="20" as="geometry" />
        </mxCell>
        <mxCell id="7Hp0aEXJhVOCBosLb66T-27" value="" style="edgeStyle=elbowEdgeStyle;elbow=horizontal;endArrow=classic;html=1;strokeWidth=2;dashed=1;" edge="1" parent="1">
          <mxGeometry width="50" height="50" relative="1" as="geometry">
            <mxPoint x="1700" y="360" as="sourcePoint" />
            <mxPoint x="1700" y="400" as="targetPoint" />
            <Array as="points">
              <mxPoint x="1740" y="380" />
            </Array>
          </mxGeometry>
        </mxCell>
        <mxCell id="7Hp0aEXJhVOCBosLb66T-21" value="生成报修订单" style="text;html=1;strokeColor=none;fillColor=none;align=center;verticalAlign=middle;whiteSpace=wrap;rounded=0;" vertex="1" parent="1">
          <mxGeometry x="1460" y="300" width="80" height="20" as="geometry" />
        </mxCell>
        <mxCell id="7Hp0aEXJhVOCBosLb66T-28" value="" style="endArrow=none;dashed=1;html=1;entryX=0.5;entryY=1;entryDx=0;entryDy=0;strokeWidth=2;" edge="1" parent="1" target="7Hp0aEXJhVOCBosLb66T-21">
          <mxGeometry width="50" height="50" relative="1" as="geometry">
            <mxPoint x="1500" y="800" as="sourcePoint" />
            <mxPoint x="1499.5" y="240" as="targetPoint" />
          </mxGeometry>
        </mxCell>
        <mxCell id="7Hp0aEXJhVOCBosLb66T-29" value="生成系统通知" style="text;html=1;strokeColor=none;fillColor=none;align=center;verticalAlign=middle;whiteSpace=wrap;rounded=0;" vertex="1" parent="1">
          <mxGeometry x="1740" y="370" width="80" height="20" as="geometry" />
        </mxCell>
        <mxCell id="7Hp0aEXJhVOCBosLb66T-31" value="" style="endArrow=classic;html=1;strokeWidth=2;" edge="1" parent="1">
          <mxGeometry width="50" height="50" relative="1" as="geometry">
            <mxPoint x="1500" y="440" as="sourcePoint" />
            <mxPoint x="1700" y="440" as="targetPoint" />
          </mxGeometry>
        </mxCell>
        <mxCell id="7Hp0aEXJhVOCBosLb66T-32" value="接单、抢单" style="text;html=1;strokeColor=none;fillColor=none;align=center;verticalAlign=middle;whiteSpace=wrap;rounded=0;" vertex="1" parent="1">
          <mxGeometry x="1560" y="420" width="80" height="20" as="geometry" />
        </mxCell>
        <mxCell id="7Hp0aEXJhVOCBosLb66T-33" value="" style="endArrow=classic;html=1;dashed=1;strokeWidth=2;" edge="1" parent="1">
          <mxGeometry width="50" height="50" relative="1" as="geometry">
            <mxPoint x="1700" y="480" as="sourcePoint" />
            <mxPoint x="1500" y="480" as="targetPoint" />
          </mxGeometry>
        </mxCell>
        <mxCell id="7Hp0aEXJhVOCBosLb66T-34" value="无人接单人工派单" style="text;html=1;strokeColor=none;fillColor=none;align=center;verticalAlign=middle;whiteSpace=wrap;rounded=0;" vertex="1" parent="1">
          <mxGeometry x="1550" y="460" width="110" height="20" as="geometry" />
        </mxCell>
        <mxCell id="7Hp0aEXJhVOCBosLb66T-35" value="" style="endArrow=classic;html=1;strokeWidth=2;dashed=1;" edge="1" parent="1">
          <mxGeometry width="50" height="50" relative="1" as="geometry">
            <mxPoint x="1500" y="480" as="sourcePoint" />
            <mxPoint x="1300" y="480" as="targetPoint" />
          </mxGeometry>
        </mxCell>
        <mxCell id="7Hp0aEXJhVOCBosLb66T-37" value="通知租户、更新状态" style="text;html=1;strokeColor=none;fillColor=none;align=center;verticalAlign=middle;whiteSpace=wrap;rounded=0;" vertex="1" parent="1">
          <mxGeometry x="1350" y="460" width="110" height="20" as="geometry" />
        </mxCell>
        <mxCell id="7Hp0aEXJhVOCBosLb66T-38" value="" style="endArrow=classic;html=1;strokeWidth=2;" edge="1" parent="1">
          <mxGeometry width="50" height="50" relative="1" as="geometry">
            <mxPoint x="1500" y="520" as="sourcePoint" />
            <mxPoint x="1100" y="520" as="targetPoint" />
          </mxGeometry>
        </mxCell>
        <mxCell id="7Hp0aEXJhVOCBosLb66T-39" value="联系租户，进行维修" style="text;html=1;strokeColor=none;fillColor=none;align=center;verticalAlign=middle;whiteSpace=wrap;rounded=0;" vertex="1" parent="1">
          <mxGeometry x="1350" y="500" width="110" height="20" as="geometry" />
        </mxCell>
        <mxCell id="7Hp0aEXJhVOCBosLb66T-40" value="" style="endArrow=classic;html=1;strokeWidth=2;dashed=1;" edge="1" parent="1">
          <mxGeometry width="50" height="50" relative="1" as="geometry">
            <mxPoint x="1500" y="600" as="sourcePoint" />
            <mxPoint x="1700" y="600" as="targetPoint" />
          </mxGeometry>
        </mxCell>
        <mxCell id="7Hp0aEXJhVOCBosLb66T-41" value="更新状态（确认中）" style="text;html=1;strokeColor=none;fillColor=none;align=center;verticalAlign=middle;whiteSpace=wrap;rounded=0;" vertex="1" parent="1">
          <mxGeometry x="1550" y="580" width="110" height="20" as="geometry" />
        </mxCell>
        <mxCell id="7Hp0aEXJhVOCBosLb66T-42" value="" style="endArrow=classic;html=1;strokeWidth=2;dashed=1;" edge="1" parent="1">
          <mxGeometry width="50" height="50" relative="1" as="geometry">
            <mxPoint x="1500" y="639" as="sourcePoint" />
            <mxPoint x="1700" y="639" as="targetPoint" />
          </mxGeometry>
        </mxCell>
        <mxCell id="7Hp0aEXJhVOCBosLb66T-43" value="更新状态（维修中）" style="text;html=1;strokeColor=none;fillColor=none;align=center;verticalAlign=middle;whiteSpace=wrap;rounded=0;" vertex="1" parent="1">
          <mxGeometry x="1550" y="619" width="110" height="20" as="geometry" />
        </mxCell>
        <mxCell id="7Hp0aEXJhVOCBosLb66T-44" value="" style="endArrow=classic;html=1;strokeWidth=2;dashed=1;" edge="1" parent="1">
          <mxGeometry width="50" height="50" relative="1" as="geometry">
            <mxPoint x="1500" y="679" as="sourcePoint" />
            <mxPoint x="1700" y="679" as="targetPoint" />
          </mxGeometry>
        </mxCell>
        <mxCell id="7Hp0aEXJhVOCBosLb66T-45" value="更新状态（已完成）" style="text;html=1;strokeColor=none;fillColor=none;align=center;verticalAlign=middle;whiteSpace=wrap;rounded=0;" vertex="1" parent="1">
          <mxGeometry x="1550" y="659" width="110" height="20" as="geometry" />
        </mxCell>
        <mxCell id="7Hp0aEXJhVOCBosLb66T-46" value="" style="endArrow=classic;html=1;strokeWidth=2;dashed=1;" edge="1" parent="1">
          <mxGeometry width="50" height="50" relative="1" as="geometry">
            <mxPoint x="1700" y="760" as="sourcePoint" />
            <mxPoint x="1300" y="760" as="targetPoint" />
          </mxGeometry>
        </mxCell>
        <mxCell id="7Hp0aEXJhVOCBosLb66T-47" value="返回工单状态" style="text;html=1;strokeColor=none;fillColor=none;align=center;verticalAlign=middle;whiteSpace=wrap;rounded=0;" vertex="1" parent="1">
          <mxGeometry x="1400" y="740" width="110" height="20" as="geometry" />
        </mxCell>
        <mxCell id="7Hp0aEXJhVOCBosLb66T-48" value="" style="endArrow=classic;html=1;strokeWidth=2;dashed=1;" edge="1" parent="1">
          <mxGeometry width="50" height="50" relative="1" as="geometry">
            <mxPoint x="1300" y="720" as="sourcePoint" />
            <mxPoint x="1700" y="720" as="targetPoint" />
          </mxGeometry>
        </mxCell>
        <mxCell id="7Hp0aEXJhVOCBosLb66T-49" value="查询工单状态" style="text;html=1;strokeColor=none;fillColor=none;align=center;verticalAlign=middle;whiteSpace=wrap;rounded=0;" vertex="1" parent="1">
          <mxGeometry x="1400" y="700" width="110" height="20" as="geometry" />
        </mxCell>
        <mxCell id="7Hp0aEXJhVOCBosLb66T-51" value="" style="endArrow=classic;html=1;strokeWidth=2;" edge="1" parent="1">
          <mxGeometry width="50" height="50" relative="1" as="geometry">
            <mxPoint x="1700" y="799" as="sourcePoint" />
            <mxPoint x="1100" y="799" as="targetPoint" />
          </mxGeometry>
        </mxCell>
        <mxCell id="7Hp0aEXJhVOCBosLb66T-52" value="联系租户，进行回访" style="text;html=1;strokeColor=none;fillColor=none;align=center;verticalAlign=middle;whiteSpace=wrap;rounded=0;" vertex="1" parent="1">
          <mxGeometry x="1350" y="780" width="110" height="20" as="geometry" />
        </mxCell>
        <mxCell id="7Hp0aEXJhVOCBosLb66T-53" value="" style="endArrow=classic;html=1;strokeWidth=2;dashed=1;" edge="1" parent="1">
          <mxGeometry width="50" height="50" relative="1" as="geometry">
            <mxPoint x="1500" y="559" as="sourcePoint" />
            <mxPoint x="1700" y="559" as="targetPoint" />
          </mxGeometry>
        </mxCell>
        <mxCell id="7Hp0aEXJhVOCBosLb66T-54" value="更新状态（待接单）" style="text;html=1;strokeColor=none;fillColor=none;align=center;verticalAlign=middle;whiteSpace=wrap;rounded=0;" vertex="1" parent="1">
          <mxGeometry x="1550" y="539" width="110" height="20" as="geometry" />
        </mxCell>
      </root>
    </mxGraphModel>
  </diagram>
</mxfile>
